<svg xmlns="http://www.w3.org/2000/svg" viewBox="0 0 1000 280" width="1000" height="280" role="img" aria-labelledby="ttl dsc">
  <title id="ttl">DUFA — systems, networks, firmware, gamedev</title>
  <desc id="dsc">Панель с mesh-сетью: узлы разной глубины, связи построены графом Габриэля.</desc>
  <defs><clipPath id="paneClip"><rect x="9" y="27" width="514" height="226"/></clipPath></defs>

  <line x1="8.5" y1="26.5" x2="17.5" y2="26.5" stroke="#d0d7de" stroke-width="1"/><line x1="110.9" y1="26.5" x2="524.5" y2="26.5" stroke="#d0d7de" stroke-width="1"/><line x1="524.5" y1="26.5" x2="524.5" y2="254.5" stroke="#d0d7de" stroke-width="1"/><line x1="524.5" y1="254.5" x2="8.5" y2="254.5" stroke="#d0d7de" stroke-width="1"/><line x1="8.5" y1="254.5" x2="8.5" y2="26.5" stroke="#d0d7de" stroke-width="1"/>
  <text x="22.5" y="30" font-family="Consolas,'Lucida Console',Monaco,'DejaVu Sans Mono','Liberation Mono',ui-monospace,monospace" font-size="10" letter-spacing="1.6" fill="#59636e">net.topology</text>
  <g clip-path="url(#paneClip)"><path d="M 350 86.8 L 362.5 146.5" fill="none" stroke="#ccd4dd" stroke-width="0.65" opacity="0.38"/><path d="M 388.5 92.6 L 350 86.8" fill="none" stroke="#ccd4dd" stroke-width="0.65" opacity="0.39"/><path d="M 314.3 123.3 L 350 86.8" fill="none" stroke="#ccd4dd" stroke-width="0.66" opacity="0.39"/><path d="M 388.5 92.6 L 362.5 146.5" fill="none" stroke="#ccd4dd" stroke-width="0.66" opacity="0.39"/><path d="M 314.3 123.3 L 362.5 146.5" fill="none" stroke="#ccd4dd" stroke-width="0.67" opacity="0.39"/><path d="M 425.1 165.9 L 362.5 146.5" fill="none" stroke="#ccd4dd" stroke-width="0.7" opacity="0.41"/><path d="M 350 86.8 L 371.2 59.1" fill="none" stroke="#ccd4dd" stroke-width="0.71" opacity="0.42"/><path d="M 314.3 123.3 L 243.8 81.2" fill="none" stroke="#ccd4dd" stroke-width="0.72" opacity="0.42"/><path d="M 388.5 92.6 L 371.2 59.1" fill="none" stroke="#ccd4dd" stroke-width="0.72" opacity="0.42"/><path d="M 388.5 92.6 L 436.6 132.8" fill="none" stroke="#ccd4dd" stroke-width="0.72" opacity="0.42"/><path d="M 314.3 123.3 L 243.8 123.5" fill="none" stroke="#ccd4dd" stroke-width="0.74" opacity="0.43"/><path d="M 243.8 81.2 L 215.7 103.4" fill="none" stroke="#ccd4dd" stroke-width="0.75" opacity="0.43"/><path d="M 425.1 165.9 L 436.6 132.8" fill="none" stroke="#ccd4dd" stroke-width="0.76" opacity="0.44"/><path d="M 388.5 92.6 L 415.5 56.5" fill="none" stroke="#ccd4dd" stroke-width="0.76" opacity="0.44"/><path d="M 335 44.1 L 350 86.8" fill="none" stroke="#ccd4dd" stroke-width="0.76" opacity="0.44"/><path d="M 243.8 123.5 L 215.7 103.4" fill="none" stroke="#ccd4dd" stroke-width="0.77" opacity="0.45"/><path d="M 243.8 81.2 L 243.8 123.5" fill="none" stroke="#ccd4dd" stroke-width="0.79" opacity="0.45"/><path d="M 152.7 116.5 L 215.7 103.4" fill="none" stroke="#ccd4dd" stroke-width="0.79" opacity="0.45"/><path d="M 425.1 165.9 L 455.5 203.2" fill="none" stroke="#ccd4dd" stroke-width="0.79" opacity="0.46"/><path d="M 362.5 146.5 L 323.3 215.4" fill="none" stroke="#ccd4dd" stroke-width="0.82" opacity="0.47"/><path d="M 415.5 56.5 L 371.2 59.1" fill="none" stroke="#ccd4dd" stroke-width="0.82" opacity="0.47"/><path d="M 314.3 123.3 L 323.3 215.4" fill="none" stroke="#ccd4dd" stroke-width="0.83" opacity="0.47"/><path d="M 152.7 116.5 L 96.5 91.9" fill="none" stroke="#ccd4dd" stroke-width="0.83" opacity="0.47"/><path d="M 335 44.1 L 371.2 59.1" fill="none" stroke="#ccd4dd" stroke-width="0.83" opacity="0.48"/><path d="M 444.3 61.5 L 436.6 132.8" fill="none" stroke="#ccd4dd" stroke-width="0.85" opacity="0.48"/><path d="M 512.3 152.9 L 436.6 132.8" fill="none" stroke="#ccd4dd" stroke-width="0.85" opacity="0.49"/><path d="M 47.9 96 L 96.5 91.9" fill="none" stroke="#ccd4dd" stroke-width="0.85" opacity="0.49"/><path d="M 314.3 123.3 L 260.7 172.7" fill="none" stroke="#ccd4dd" stroke-width="0.88" opacity="0.5"/><path d="M 455.5 203.2 L 545.3 203.5" fill="none" stroke="#ccd4dd" stroke-width="0.88" opacity="0.5"/><path d="M 90.7 123.7 L 96.5 91.9" fill="none" stroke="#ccd4dd" stroke-width="0.88" opacity="0.5"/><path d="M 512.3 152.9 L 455.5 203.2" fill="none" stroke="#ccd4dd" stroke-width="0.88" opacity="0.5"/><path d="M 444.3 61.5 L 415.5 56.5" fill="none" stroke="#ccd4dd" stroke-width="0.89" opacity="0.5"/><path d="M 152.7 116.5 L 90.7 123.7" fill="none" stroke="#ccd4dd" stroke-width="0.89" opacity="0.5"/><path d="M 512.3 152.9 L 545.3 203.5" fill="none" stroke="#ccd4dd" stroke-width="0.91" opacity="0.52"/><path d="M 90.7 123.7 L 47.9 96" fill="none" stroke="#ccd4dd" stroke-width="0.91" opacity="0.52"/><path d="M 72.4 66.5 L 96.5 91.9" fill="none" stroke="#ccd4dd" stroke-width="0.92" opacity="0.52"/><path d="M 436.6 132.8 L 498.1 74.7" fill="none" stroke="#ccd4dd" stroke-width="0.92" opacity="0.52"/><path d="M 16.7 88.1 L 47.9 96" fill="none" stroke="#ccd4dd" stroke-width="0.92" opacity="0.52"/><path d="M 7.5 125.8 L 47.9 96" fill="none" stroke="#ccd4dd" stroke-width="0.94" opacity="0.53"/><path d="M 260.7 172.7 L 243.8 123.5" fill="none" stroke="#ccd4dd" stroke-width="0.94" opacity="0.53"/><path d="M 16.7 88.1 L -14 92.7" fill="none" stroke="#ccd4dd" stroke-width="0.95" opacity="0.53"/><path d="M 215.7 103.4 L 145.5 49" fill="none" stroke="#ccd4dd" stroke-width="0.95" opacity="0.53"/><path d="M 72.4 66.5 L 47.9 96" fill="none" stroke="#ccd4dd" stroke-width="0.95" opacity="0.54"/><path d="M 243.8 81.2 L 249.3 34.1" fill="none" stroke="#ccd4dd" stroke-width="0.97" opacity="0.54"/><path d="M 7.5 125.8 L 16.7 88.1" fill="none" stroke="#ccd4dd" stroke-width="0.97" opacity="0.54"/><path d="M 7.5 125.8 L -14 92.7" fill="none" stroke="#ccd4dd" stroke-width="0.97" opacity="0.55"/><path d="M 444.3 61.5 L 498.1 74.7" fill="none" stroke="#ccd4dd" stroke-width="0.98" opacity="0.55"/><path d="M 96.5 91.9 L 145.5 49" fill="none" stroke="#ccd4dd" stroke-width="0.99" opacity="0.56"/><path d="M 539.2 121.6 L 512.3 152.9" fill="none" stroke="#ccd4dd" stroke-width="0.99" opacity="0.56"/><path d="M 208.1 37.2 L 215.7 103.4" fill="none" stroke="#ccd4dd" stroke-width="1" opacity="0.56"/><path d="M 455.5 203.2 L 454.4 240.6" fill="none" stroke="#ccd4dd" stroke-width="1" opacity="0.56"/><path d="M 152.7 116.5 L 145.5 49" fill="none" stroke="#ccd4dd" stroke-width="1" opacity="0.56"/><path d="M 335 44.1 L 283.6 24.9" fill="none" stroke="#ccd4dd" stroke-width="1" opacity="0.56"/><path d="M 243.8 81.2 L 208.1 37.2" fill="none" stroke="#ccd4dd" stroke-width="1.01" opacity="0.56"/><path d="M 506.7 265.6 L 545.3 203.5" fill="none" stroke="#ccd4dd" stroke-width="1.02" opacity="0.57"/><path d="M 260.7 172.7 L 323.3 215.4" fill="none" stroke="#ccd4dd" stroke-width="1.03" opacity="0.57"/><path d="M 104.1 40.9 L 96.5 91.9" fill="none" stroke="#ccd4dd" stroke-width="1.04" opacity="0.58"/><path d="M 90.7 123.7 L 8.6 161.7" fill="none" stroke="#ccd4dd" stroke-width="1.04" opacity="0.58"/><path d="M 30 45.6 L 47.9 96" fill="none" stroke="#ccd4dd" stroke-width="1.05" opacity="0.58"/><path d="M 539.2 121.6 L 498.1 74.7" fill="none" stroke="#ccd4dd" stroke-width="1.06" opacity="0.59"/><path d="M 16.7 88.1 L -17.6 50.1" fill="none" stroke="#ccd4dd" stroke-width="1.06" opacity="0.59"/><path d="M 178.1 167.9 L 215.7 103.4" fill="none" stroke="#ccd4dd" stroke-width="1.06" opacity="0.59"/><path d="M -17.6 50.1 L -14 92.7" fill="none" stroke="#ccd4dd" stroke-width="1.06" opacity="0.59"/><path d="M 7.5 125.8 L 8.6 161.7" fill="none" stroke="#ccd4dd" stroke-width="1.07" opacity="0.59"/><path d="M 538 25 L 498.1 74.7" fill="none" stroke="#ccd4dd" stroke-width="1.07" opacity="0.6"/><path d="M 30 45.6 L 16.7 88.1" fill="none" stroke="#ccd4dd" stroke-width="1.07" opacity="0.6"/><path d="M 243.8 123.5 L 178.1 167.9" fill="none" stroke="#ccd4dd" stroke-width="1.1" opacity="0.61"/><path d="M 72.4 66.5 L 30 45.6" fill="none" stroke="#ccd4dd" stroke-width="1.11" opacity="0.61"/><path d="M 152.7 116.5 L 178.1 167.9" fill="none" stroke="#ccd4dd" stroke-width="1.11" opacity="0.62"/><path d="M 104.1 40.9 L 72.4 66.5" fill="none" stroke="#ccd4dd" stroke-width="1.13" opacity="0.63"/><path d="M 89.6 183.5 L 90.7 123.7" fill="none" stroke="#ccd4dd" stroke-width="1.14" opacity="0.63"/><path d="M 506.7 265.6 L 454.4 240.6" fill="none" stroke="#ccd4dd" stroke-width="1.15" opacity="0.63"/><path d="M 283.6 24.9 L 249.3 34.1" fill="none" stroke="#ccd4dd" stroke-width="1.15" opacity="0.63"/><path d="M 27.1 202.7 L 8.6 161.7" fill="none" stroke="#ccd4dd" stroke-width="1.17" opacity="0.64"/><path d="M -8.6 253.5 L -17.7 229.3" fill="none" stroke="#ccd4dd" stroke-width="1.17" opacity="0.65"/><path d="M 27.1 202.7 L -17.7 229.3" fill="none" stroke="#ccd4dd" stroke-width="1.18" opacity="0.65"/><path d="M 30 45.6 L -17.6 50.1" fill="none" stroke="#ccd4dd" stroke-width="1.19" opacity="0.66"/><path d="M 323.3 215.4 L 255 254.4" fill="none" stroke="#ccd4dd" stroke-width="1.19" opacity="0.66"/><path d="M 30 267.4 L -8.6 253.5" fill="none" stroke="#ccd4dd" stroke-width="1.2" opacity="0.66"/><path d="M 37 238.2 L -8.6 253.5" fill="none" stroke="#ccd4dd" stroke-width="1.2" opacity="0.66"/><path d="M 323.3 215.4 L 331.6 264.4" fill="none" stroke="#ccd4dd" stroke-width="1.21" opacity="0.66"/><path d="M 219.4 206.4 L 260.7 172.7" fill="none" stroke="#ccd4dd" stroke-width="1.21" opacity="0.66"/><path d="M 104.1 40.9 L 145.5 49" fill="none" stroke="#ccd4dd" stroke-width="1.21" opacity="0.66"/><path d="M 27.1 202.7 L 37 238.2" fill="none" stroke="#ccd4dd" stroke-width="1.21" opacity="0.67"/><path d="M 208.1 37.2 L 145.5 49" fill="none" stroke="#ccd4dd" stroke-width="1.21" opacity="0.67"/><path d="M 208.1 37.2 L 249.3 34.1" fill="none" stroke="#ccd4dd" stroke-width="1.22" opacity="0.67"/><path d="M 30 267.4 L 37 238.2" fill="none" stroke="#ccd4dd" stroke-width="1.22" opacity="0.67"/><path d="M 425.6 259.3 L 454.4 240.6" fill="none" stroke="#ccd4dd" stroke-width="1.24" opacity="0.68"/><path d="M 27.1 202.7 L 74.3 218.7" fill="none" stroke="#ccd4dd" stroke-width="1.25" opacity="0.68"/><path d="M 6.9 19.7 L -17.6 50.1" fill="none" stroke="#ccd4dd" stroke-width="1.26" opacity="0.69"/><path d="M 74.3 218.7 L 37 238.2" fill="none" stroke="#ccd4dd" stroke-width="1.26" opacity="0.69"/><path d="M 30 45.6 L 6.9 19.7" fill="none" stroke="#ccd4dd" stroke-width="1.27" opacity="0.7"/><path d="M 74.3 218.7 L 89.6 183.5" fill="none" stroke="#ccd4dd" stroke-width="1.31" opacity="0.72"/><path d="M 74.3 218.7 L 113.1 251.2" fill="none" stroke="#ccd4dd" stroke-width="1.33" opacity="0.73"/><path d="M 219.4 206.4 L 113.1 251.2" fill="none" stroke="#ccd4dd" stroke-width="1.35" opacity="0.74"/><path d="M 89.6 183.5 L 178.1 167.9" fill="none" stroke="#ccd4dd" stroke-width="1.36" opacity="0.74"/><path d="M 219.4 206.4 L 178.1 167.9" fill="none" stroke="#ccd4dd" stroke-width="1.37" opacity="0.74"/><path d="M 219.4 206.4 L 255 254.4" fill="none" stroke="#ccd4dd" stroke-width="1.37" opacity="0.75"/><path d="M 113.1 251.2 L 178.1 167.9" fill="none" stroke="#ccd4dd" stroke-width="1.38" opacity="0.75"/><path d="M 219.4 206.4 L 219.1 259.1" fill="none" stroke="#ccd4dd" stroke-width="1.38" opacity="0.75"/><path d="M 425.6 259.3 L 331.6 264.4" fill="none" stroke="#ccd4dd" stroke-width="1.38" opacity="0.75"/><path d="M 113.1 251.2 L 219.1 259.1" fill="none" stroke="#ccd4dd" stroke-width="1.39" opacity="0.76"/><path d="M 219.1 259.1 L 255 254.4" fill="none" stroke="#ccd4dd" stroke-width="1.41" opacity="0.77"/><path d="M 331.6 264.4 L 255 254.4" fill="none" stroke="#ccd4dd" stroke-width="1.42" opacity="0.77"/><path d="M 219.4 206.4 L 113.1 251.2" fill="none" stroke="#2da44e" stroke-width="1.3" opacity="0.8" stroke-dasharray="22 161.56" stroke-dashoffset="183.56">
      <animate attributeName="stroke-dashoffset" values="183.56;-22" dur="6.69s" begin="2.67s" repeatCount="indefinite"/></path><path d="M 425.6 259.3 L 331.6 264.4" fill="none" stroke="#2da44e" stroke-width="1.3" opacity="0.8" stroke-dasharray="22 131.88" stroke-dashoffset="153.88">
      <animate attributeName="stroke-dashoffset" values="153.88;-22" dur="5.49s" begin="4.91s" repeatCount="indefinite"/></path><path d="M 89.6 183.5 L 178.1 167.9" fill="none" stroke="#2da44e" stroke-width="1.3" opacity="0.8" stroke-dasharray="22 125.86" stroke-dashoffset="147.86">
      <animate attributeName="stroke-dashoffset" values="147.86;-22" dur="5.82s" begin="10.35s" repeatCount="indefinite"/></path><path d="M 436.6 132.8 L 498.1 74.7" fill="none" stroke="#2da44e" stroke-width="1.3" opacity="0.8" stroke-dasharray="22 118.44" stroke-dashoffset="140.44">
      <animate attributeName="stroke-dashoffset" values="140.44;-22" dur="4.71s" begin="1.6s" repeatCount="indefinite"/></path><path d="M 362.5 146.5 L 323.3 215.4" fill="none" stroke="#2da44e" stroke-width="1.3" opacity="0.8" stroke-dasharray="22 111.02" stroke-dashoffset="133.02">
      <animate attributeName="stroke-dashoffset" values="133.02;-22" dur="4.87s" begin="5.18s" repeatCount="indefinite"/></path><rect x="347.88" y="84.68" width="4.24" height="4.24" fill="#4ac26b" opacity="0.46">
      <animate attributeName="opacity" values="0.46;0.88;0.46" dur="7.26s" begin="1.8s" repeatCount="indefinite"/></rect><rect x="360.36" y="144.35" width="4.29" height="4.29" fill="#4ac26b" opacity="0.47">
      <animate attributeName="opacity" values="0.47;0.89;0.47" dur="7.88s" begin="2.99s" repeatCount="indefinite"/></rect><rect x="386.35" y="90.45" width="4.3" height="4.3" fill="#4ac26b" opacity="0.47">
      <animate attributeName="opacity" values="0.47;0.89;0.47" dur="8.32s" begin="4.15s" repeatCount="indefinite"/></rect><rect x="311.68" y="120.67" width="5.25" height="5.25" fill="#2da44e" opacity="0.47">
      <animate attributeName="opacity" values="0.47;0.89;0.47" dur="8.15s" begin="3.87s" repeatCount="indefinite"/></rect><rect x="423.27" y="164.07" width="3.66" height="3.66" fill="#aceebb" opacity="0.5">
      <animate attributeName="opacity" values="0.5;0.92;0.5" dur="7.48s" begin="0.43s" repeatCount="indefinite"/></rect><rect x="212.97" y="100.67" width="5.46" height="5.46" fill="#2da44e" opacity="0.5">
      <animate attributeName="opacity" values="0.5;0.92;0.5" dur="9.89s" begin="0.06s" repeatCount="indefinite"/></rect><rect x="241.48" y="78.88" width="4.64" height="4.64" fill="#4ac26b" opacity="0.51">
      <animate attributeName="opacity" values="0.51;0.93;0.51" dur="9.67s" begin="8.88s" repeatCount="indefinite"/></rect><rect x="368.84" y="56.74" width="4.72" height="4.72" fill="#4ac26b" opacity="0.52">
      <animate attributeName="opacity" values="0.52;0.94;0.52" dur="11.79s" begin="5.82s" repeatCount="indefinite"/></rect><rect x="434.24" y="130.44" width="4.73" height="4.73" fill="#4ac26b" opacity="0.53">
      <animate attributeName="opacity" values="0.53;0.95;0.53" dur="10.18s" begin="0.67s" repeatCount="indefinite"/></rect><rect x="241.39" y="121.09" width="4.82" height="4.82" fill="#4ac26b" opacity="0.54">
      <animate attributeName="opacity" values="0.54;0.96;0.54" dur="11.54s" begin="10.12s" repeatCount="indefinite"/></rect><rect x="93.63" y="89.03" width="5.75" height="5.75" fill="#2da44e" opacity="0.54">
      <animate attributeName="opacity" values="0.54;0.96;0.54" dur="10.53s" begin="3.29s" repeatCount="indefinite"/></rect><rect x="150.24" y="114.05" width="4.91" height="4.91" fill="#4ac26b" opacity="0.55">
      <animate attributeName="opacity" values="0.55;0.97;0.55" dur="9.44s" begin="1.19s" repeatCount="indefinite"/></rect><rect x="453.03" y="200.73" width="4.94" height="4.94" fill="#4ac26b" opacity="0.55">
      <animate attributeName="opacity" values="0.55;0.97;0.55" dur="7.71s" begin="1.03s" repeatCount="indefinite"/></rect><rect x="413.45" y="54.45" width="4.09" height="4.09" fill="#aceebb" opacity="0.56">
      <animate attributeName="opacity" values="0.56;0.98;0.56" dur="6.43s" begin="7.36s" repeatCount="indefinite"/></rect><rect x="332.92" y="42.02" width="4.17" height="4.17" fill="#aceebb" opacity="0.57">
      <animate attributeName="opacity" values="0.57;0.99;0.57" dur="7.53s" begin="4.17s" repeatCount="indefinite"/></rect><rect x="44.91" y="93" width="5.99" height="5.99" fill="#2da44e" opacity="0.57">
      <animate attributeName="opacity" values="0.57;0.99;0.57" dur="6.93s" begin="3.76s" repeatCount="indefinite"/></rect><rect x="543.18" y="201.38" width="4.24" height="4.24" fill="#aceebb" opacity="0.58">
      <animate attributeName="opacity" values="0.58;1;0.58" dur="9.75s" begin="3.75s" repeatCount="indefinite"/></rect><rect x="442.17" y="59.37" width="4.26" height="4.26" fill="#aceebb" opacity="0.58">
      <animate attributeName="opacity" values="0.58;1;0.58" dur="11.29s" begin="8.92s" repeatCount="indefinite"/></rect><rect x="509.71" y="150.31" width="5.17" height="5.17" fill="#4ac26b" opacity="0.59">
      <animate attributeName="opacity" values="0.59;1;0.59" dur="9.72s" begin="3.94s" repeatCount="indefinite"/></rect><rect x="88.08" y="121.08" width="5.25" height="5.25" fill="#4ac26b" opacity="0.6">
      <animate attributeName="opacity" values="0.6;1;0.6" dur="10.98s" begin="6.38s" repeatCount="indefinite"/></rect><rect x="14.06" y="85.46" width="5.27" height="5.27" fill="#4ac26b" opacity="0.6">
      <animate attributeName="opacity" values="0.6;1;0.6" dur="10.9s" begin="0.99s" repeatCount="indefinite"/></rect><rect x="-16.2" y="90.51" width="4.39" height="4.39" fill="#aceebb" opacity="0.6">
      <animate attributeName="opacity" values="0.6;1;0.6" dur="6.51s" begin="9.37s" repeatCount="indefinite"/></rect><rect x="320.61" y="212.71" width="5.38" height="5.38" fill="#4ac26b" opacity="0.61">
      <animate attributeName="opacity" values="0.61;1;0.61" dur="7.75s" begin="0.44s" repeatCount="indefinite"/></rect><rect x="4.78" y="123.08" width="5.45" height="5.45" fill="#4ac26b" opacity="0.62">
      <animate attributeName="opacity" values="0.62;1;0.62" dur="10.49s" begin="5.17s" repeatCount="indefinite"/></rect><rect x="69.65" y="63.75" width="5.5" height="5.5" fill="#4ac26b" opacity="0.63">
      <animate attributeName="opacity" values="0.63;1;0.63" dur="7.24s" begin="1.97s" repeatCount="indefinite"/></rect><rect x="495.29" y="71.89" width="5.62" height="5.62" fill="#4ac26b" opacity="0.65">
      <animate attributeName="opacity" values="0.65;1;0.65" dur="9.64s" begin="2.69s" repeatCount="indefinite"/></rect><rect x="536.8" y="119.19" width="4.81" height="4.81" fill="#aceebb" opacity="0.66">
      <animate attributeName="opacity" values="0.66;1;0.66" dur="7.5s" begin="7.66s" repeatCount="indefinite"/></rect><rect x="257.84" y="169.84" width="5.72" height="5.72" fill="#4ac26b" opacity="0.66">
      <animate attributeName="opacity" values="0.66;1;0.66" dur="9.53s" begin="1.38s" repeatCount="indefinite"/></rect><rect x="535.55" y="22.55" width="4.89" height="4.89" fill="#aceebb" opacity="0.67">
      <animate attributeName="opacity" values="0.67;1;0.67" dur="10.42s" begin="6.61s" repeatCount="indefinite"/></rect><rect x="281.12" y="22.42" width="4.96" height="4.96" fill="#aceebb" opacity="0.68">
      <animate attributeName="opacity" values="0.68;1;0.68" dur="8.83s" begin="5.45s" repeatCount="indefinite"/></rect><rect x="6.09" y="159.19" width="5.02" height="5.02" fill="#aceebb" opacity="0.69">
      <animate attributeName="opacity" values="0.69;1;0.69" dur="7.22s" begin="10.56s" repeatCount="indefinite"/></rect><rect x="504.18" y="263.08" width="5.05" height="5.05" fill="#aceebb" opacity="0.69">
      <animate attributeName="opacity" values="0.69;1;0.69" dur="6.83s" begin="10.86s" repeatCount="indefinite"/></rect><rect x="451.86" y="238.06" width="5.07" height="5.07" fill="#aceebb" opacity="0.69">
      <animate attributeName="opacity" values="0.69;1;0.69" dur="7.81s" begin="10.45s" repeatCount="indefinite"/></rect><rect x="142.49" y="45.99" width="6.02" height="6.02" fill="#4ac26b" opacity="0.7">
      <animate attributeName="opacity" values="0.7;1;0.7" dur="7.7s" begin="9.46s" repeatCount="indefinite"/></rect><rect x="-20.27" y="226.74" width="5.13" height="5.13" fill="#aceebb" opacity="0.7">
      <animate attributeName="opacity" values="0.7;1;0.7" dur="11.16s" begin="4.63s" repeatCount="indefinite"/></rect><rect x="-11.18" y="250.92" width="5.16" height="5.16" fill="#aceebb" opacity="0.71">
      <animate attributeName="opacity" values="0.71;1;0.71" dur="8.8s" begin="5.33s" repeatCount="indefinite"/></rect><rect x="-20.63" y="47.07" width="6.06" height="6.06" fill="#4ac26b" opacity="0.71">
      <animate attributeName="opacity" values="0.71;1;0.71" dur="11.36s" begin="3.13s" repeatCount="indefinite"/></rect><rect x="246.72" y="31.52" width="5.16" height="5.16" fill="#aceebb" opacity="0.71">
      <animate attributeName="opacity" values="0.71;1;0.71" dur="8.69s" begin="2.33s" repeatCount="indefinite"/></rect><rect x="24.04" y="199.63" width="6.13" height="6.13" fill="#4ac26b" opacity="0.72">
      <animate attributeName="opacity" values="0.72;1;0.72" dur="8.19s" begin="10.67s" repeatCount="indefinite"/></rect><rect x="26.92" y="42.52" width="6.16" height="6.16" fill="#4ac26b" opacity="0.72">
      <animate attributeName="opacity" values="0.72;1;0.72" dur="11.62s" begin="6.06s" repeatCount="indefinite"/></rect><rect x="27.36" y="264.75" width="5.29" height="5.29" fill="#aceebb" opacity="0.72">
      <animate attributeName="opacity" values="0.72;1;0.72" dur="8.32s" begin="0.63s" repeatCount="indefinite"/></rect><rect x="33.89" y="235.09" width="6.22" height="6.22" fill="#4ac26b" opacity="0.73">
      <animate attributeName="opacity" values="0.73;1;0.73" dur="6.57s" begin="5.12s" repeatCount="indefinite"/></rect><rect x="101.39" y="38.19" width="5.42" height="5.42" fill="#aceebb" opacity="0.74">
      <animate attributeName="opacity" values="0.74;1;0.74" dur="9.55s" begin="5.33s" repeatCount="indefinite"/></rect><rect x="204.93" y="34.03" width="6.34" height="6.34" fill="#4ac26b" opacity="0.74">
      <animate attributeName="opacity" values="0.74;1;0.74" dur="9.44s" begin="2.69s" repeatCount="indefinite"/></rect><rect x="71.06" y="215.46" width="6.47" height="6.47" fill="#4ac26b" opacity="0.76">
      <animate attributeName="opacity" values="0.76;1;0.76" dur="7.34s" begin="11.97s" repeatCount="indefinite"/></rect><rect x="422.77" y="256.47" width="5.67" height="5.67" fill="#aceebb" opacity="0.77">
      <animate attributeName="opacity" values="0.77;1;0.77" dur="9.73s" begin="2.11s" repeatCount="indefinite"/></rect><rect x="86.75" y="180.66" width="5.69" height="5.69" fill="#aceebb" opacity="0.78">
      <animate attributeName="opacity" values="0.78;1;0.78" dur="9.96s" begin="4.95s" repeatCount="indefinite"/></rect><rect x="4.04" y="16.84" width="5.71" height="5.71" fill="#aceebb" opacity="0.78">
      <animate attributeName="opacity" values="0.78;1;0.78" dur="8.66s" begin="8.12s" repeatCount="indefinite"/></rect><rect x="216.09" y="203.09" width="6.62" height="6.62" fill="#4ac26b" opacity="0.78">
      <animate attributeName="opacity" values="0.78;1;0.78" dur="10.97s" begin="7.06s" repeatCount="indefinite"/></rect><rect x="109.74" y="247.84" width="6.71" height="6.71" fill="#4ac26b" opacity="0.79">
      <animate attributeName="opacity" values="0.79;1;0.79" dur="11.45s" begin="5.65s" repeatCount="indefinite"/></rect><rect x="174.25" y="164.06" width="7.69" height="7.69" fill="#2da44e" opacity="0.8">
      <animate attributeName="opacity" values="0.8;1;0.8" dur="10.37s" begin="10.32s" repeatCount="indefinite"/></rect><rect x="251.57" y="250.97" width="6.85" height="6.85" fill="#4ac26b" opacity="0.81">
      <animate attributeName="opacity" values="0.81;1;0.81" dur="7.51s" begin="1.46s" repeatCount="indefinite"/></rect><rect x="216.1" y="256.11" width="5.99" height="5.99" fill="#aceebb" opacity="0.82">
      <animate attributeName="opacity" values="0.82;1;0.82" dur="9.36s" begin="8.17s" repeatCount="indefinite"/></rect><rect x="328.58" y="261.38" width="6.04" height="6.04" fill="#aceebb" opacity="0.82">
      <animate attributeName="opacity" values="0.82;1;0.82" dur="7.88s" begin="10.06s" repeatCount="indefinite"/></rect><rect x="-2" y="-2" width="4" height="4" fill="#1a7f37" opacity="0">
      <animate attributeName="opacity" values="0;0.95;0.95;0" keyTimes="0;0.14;0.86;1" dur="7.43s" begin="4.75s" repeatCount="indefinite"/>
      <animateMotion dur="7.43s" begin="4.75s" repeatCount="indefinite" path="M 113.1 251.2 L 219.1 259.1"/></rect><rect x="-2" y="-2" width="4" height="4" fill="#1a7f37" opacity="0">
      <animate attributeName="opacity" values="0;0.95;0.95;0" keyTimes="0;0.14;0.86;1" dur="7s" begin="9.28s" repeatCount="indefinite"/>
      <animateMotion dur="7s" begin="9.28s" repeatCount="indefinite" path="M 314.3 123.3 L 323.3 215.4"/></rect><rect x="-2" y="-2" width="4" height="4" fill="#1a7f37" opacity="0">
      <animate attributeName="opacity" values="0;0.95;0.95;0" keyTimes="0;0.14;0.86;1" dur="8.37s" begin="2.27s" repeatCount="indefinite"/>
      <animateMotion dur="8.37s" begin="2.27s" repeatCount="indefinite" path="M 455.5 203.2 L 545.3 203.5"/></rect><rect x="-2" y="-2" width="4" height="4" fill="#1a7f37" opacity="0">
      <animate attributeName="opacity" values="0;0.95;0.95;0" keyTimes="0;0.14;0.86;1" dur="5.46s" begin="5.93s" repeatCount="indefinite"/>
      <animateMotion dur="5.46s" begin="5.93s" repeatCount="indefinite" path="M 314.3 123.3 L 243.8 81.2"/></rect><rect x="-2" y="-2" width="4" height="4" fill="#1a7f37" opacity="0">
      <animate attributeName="opacity" values="0;0.95;0.95;0" keyTimes="0;0.14;0.86;1" dur="5s" begin="10.13s" repeatCount="indefinite"/>
      <animateMotion dur="5s" begin="10.13s" repeatCount="indefinite" path="M 323.3 215.4 L 255 254.4"/></rect></g>

  <text x="560" y="78" font-family="Consolas,'Lucida Console',Monaco,'DejaVu Sans Mono','Liberation Mono',ui-monospace,monospace" font-size="11" letter-spacing="4.5" fill="#59636e">@DUFA14</text>
  <rect x="560.0" y="92.0" width="10.8" height="10.8" fill="#1f2328"/><rect x="573.0" y="92.0" width="10.8" height="10.8" fill="#1f2328"/><rect x="586.0" y="92.0" width="10.8" height="10.8" fill="#1f2328"/><rect x="599.0" y="92.0" width="10.8" height="10.8" fill="#1f2328"/><rect x="560.0" y="105.0" width="10.8" height="10.8" fill="#1f2328"/><rect x="612.0" y="105.0" width="10.8" height="10.8" fill="#1f2328"/><rect x="560.0" y="118.0" width="10.8" height="10.8" fill="#1f2328"/><rect x="612.0" y="118.0" width="10.8" height="10.8" fill="#1f2328"/><rect x="560.0" y="131.0" width="10.8" height="10.8" fill="#1f2328"/><rect x="612.0" y="131.0" width="10.8" height="10.8" fill="#1f2328"/><rect x="560.0" y="144.0" width="10.8" height="10.8" fill="#1f2328"/><rect x="612.0" y="144.0" width="10.8" height="10.8" fill="#1f2328"/><rect x="560.0" y="157.0" width="10.8" height="10.8" fill="#1f2328"/><rect x="612.0" y="157.0" width="10.8" height="10.8" fill="#1f2328"/><rect x="560.0" y="170.0" width="10.8" height="10.8" fill="#1f2328"/><rect x="573.0" y="170.0" width="10.8" height="10.8" fill="#1f2328"/><rect x="586.0" y="170.0" width="10.8" height="10.8" fill="#1f2328"/><rect x="599.0" y="170.0" width="10.8" height="10.8" fill="#1f2328"/><rect x="641.0" y="92.0" width="10.8" height="10.8" fill="#1f2328"/><rect x="693.0" y="92.0" width="10.8" height="10.8" fill="#1f2328"/><rect x="641.0" y="105.0" width="10.8" height="10.8" fill="#1f2328"/><rect x="693.0" y="105.0" width="10.8" height="10.8" fill="#1f2328"/><rect x="641.0" y="118.0" width="10.8" height="10.8" fill="#1f2328"/><rect x="693.0" y="118.0" width="10.8" height="10.8" fill="#1f2328"/><rect x="641.0" y="131.0" width="10.8" height="10.8" fill="#1f2328"/><rect x="693.0" y="131.0" width="10.8" height="10.8" fill="#1f2328"/><rect x="641.0" y="144.0" width="10.8" height="10.8" fill="#1f2328"/><rect x="693.0" y="144.0" width="10.8" height="10.8" fill="#1f2328"/><rect x="641.0" y="157.0" width="10.8" height="10.8" fill="#1f2328"/><rect x="693.0" y="157.0" width="10.8" height="10.8" fill="#1f2328"/><rect x="654.0" y="170.0" width="10.8" height="10.8" fill="#1f2328"/><rect x="667.0" y="170.0" width="10.8" height="10.8" fill="#1f2328"/><rect x="680.0" y="170.0" width="10.8" height="10.8" fill="#1f2328"/><rect x="722.0" y="92.0" width="10.8" height="10.8" fill="#1f2328"/><rect x="735.0" y="92.0" width="10.8" height="10.8" fill="#1f2328"/><rect x="748.0" y="92.0" width="10.8" height="10.8" fill="#1f2328"/><rect x="761.0" y="92.0" width="10.8" height="10.8" fill="#1f2328"/><rect x="774.0" y="92.0" width="10.8" height="10.8" fill="#1f2328"/><rect x="722.0" y="105.0" width="10.8" height="10.8" fill="#1f2328"/><rect x="722.0" y="118.0" width="10.8" height="10.8" fill="#1f2328"/><rect x="722.0" y="131.0" width="10.8" height="10.8" fill="#1f2328"/><rect x="735.0" y="131.0" width="10.8" height="10.8" fill="#1f2328"/><rect x="748.0" y="131.0" width="10.8" height="10.8" fill="#1f2328"/><rect x="761.0" y="131.0" width="10.8" height="10.8" fill="#1f2328"/><rect x="722.0" y="144.0" width="10.8" height="10.8" fill="#1f2328"/><rect x="722.0" y="157.0" width="10.8" height="10.8" fill="#1f2328"/><rect x="722.0" y="170.0" width="10.8" height="10.8" fill="#1f2328"/><rect x="816.0" y="92.0" width="10.8" height="10.8" fill="#1f2328"/><rect x="829.0" y="92.0" width="10.8" height="10.8" fill="#1f2328"/><rect x="842.0" y="92.0" width="10.8" height="10.8" fill="#1f2328"/><rect x="803.0" y="105.0" width="10.8" height="10.8" fill="#1f2328"/><rect x="855.0" y="105.0" width="10.8" height="10.8" fill="#1f2328"/><rect x="803.0" y="118.0" width="10.8" height="10.8" fill="#1f2328"/><rect x="855.0" y="118.0" width="10.8" height="10.8" fill="#1f2328"/><rect x="803.0" y="131.0" width="10.8" height="10.8" fill="#1f2328"/><rect x="816.0" y="131.0" width="10.8" height="10.8" fill="#1f2328"/><rect x="829.0" y="131.0" width="10.8" height="10.8" fill="#1f2328"/><rect x="842.0" y="131.0" width="10.8" height="10.8" fill="#1f2328"/><rect x="855.0" y="131.0" width="10.8" height="10.8" fill="#1f2328"/><rect x="803.0" y="144.0" width="10.8" height="10.8" fill="#1f2328"/><rect x="855.0" y="144.0" width="10.8" height="10.8" fill="#1f2328"/><rect x="803.0" y="157.0" width="10.8" height="10.8" fill="#1f2328"/><rect x="855.0" y="157.0" width="10.8" height="10.8" fill="#1f2328"/><rect x="803.0" y="170.0" width="10.8" height="10.8" fill="#1f2328"/><rect x="855.0" y="170.0" width="10.8" height="10.8" fill="#1f2328"/>
  <line x1="560" y1="204" x2="946" y2="204" stroke="#e4e8ec" stroke-width="1"/>
  <text x="560" y="226" font-family="Consolas,'Lucida Console',Monaco,'DejaVu Sans Mono','Liberation Mono',ui-monospace,monospace" font-size="11.5" letter-spacing="1.4" fill="#59636e">systems<tspan fill="#1a7f37"> | </tspan>networks<tspan fill="#1a7f37"> | </tspan>firmware<tspan fill="#1a7f37"> | </tspan>gamedev</text>
</svg>
