<svg xmlns="http://www.w3.org/2000/svg" viewBox="0 0 1000 142" width="1000" height="142" role="img" aria-labelledby="lt ld">
  <title id="lt">Языки по объёму кода</title>
  <desc id="ld">C# 31.4%, Go 23.7%, TypeScript 7.8%, Rust 7.3%, C++ 5.4%, C 3.9%, PHP 3.3%, Swift 2.9%, Kotlin 2.5%, остальное 11.9%.</desc>
  <defs><clipPath id="grow"><rect x="0" y="0" width="0" height="142">
    <animate attributeName="width" values="0;1000" dur="1.1s" fill="freeze" calcMode="spline" keyTimes="0;1" keySplines="0.22 1 0.36 1"/>
  </rect></clipPath></defs>
  <line x1="8.5" y1="8.5" x2="17.5" y2="8.5" stroke="#30363d" stroke-width="1"/><line x1="90.80000000000001" y1="8.5" x2="991.5" y2="8.5" stroke="#30363d" stroke-width="1"/><line x1="991.5" y1="8.5" x2="991.5" y2="133.5" stroke="#30363d" stroke-width="1"/><line x1="991.5" y1="133.5" x2="8.5" y2="133.5" stroke="#30363d" stroke-width="1"/><line x1="8.5" y1="133.5" x2="8.5" y2="8.5" stroke="#30363d" stroke-width="1"/>
  <text x="22.5" y="12" font-family="Consolas,'Lucida Console',Monaco,'DejaVu Sans Mono','Liberation Mono',ui-monospace,monospace" font-size="10" letter-spacing="1.6" fill="#7d8590">languages</text>
  <rect x="22" y="40" width="954.5" height="17" fill="#21262d"/>
  <g clip-path="url(#grow)"><rect x="22.00" y="40" width="8.1" height="17" fill="#7355dd"/><rect x="31.56" y="40" width="8.1" height="17" fill="#7355dd"/><rect x="41.12" y="40" width="8.1" height="17" fill="#7355dd"/><rect x="50.68" y="40" width="8.1" height="17" fill="#7355dd"/><rect x="60.24" y="40" width="8.1" height="17" fill="#7355dd"/><rect x="69.80" y="40" width="8.1" height="17" fill="#7355dd"/><rect x="79.36" y="40" width="8.1" height="17" fill="#7355dd"/><rect x="88.92" y="40" width="8.1" height="17" fill="#7355dd"/><rect x="98.48" y="40" width="8.1" height="17" fill="#7355dd"/><rect x="108.04" y="40" width="8.1" height="17" fill="#7355dd"/><rect x="117.60" y="40" width="8.1" height="17" fill="#7355dd"/><rect x="127.16" y="40" width="8.1" height="17" fill="#7355dd"/><rect x="136.72" y="40" width="8.1" height="17" fill="#7355dd"/><rect x="146.28" y="40" width="8.1" height="17" fill="#7355dd"/><rect x="155.84" y="40" width="8.1" height="17" fill="#7355dd"/><rect x="165.40" y="40" width="8.1" height="17" fill="#7355dd"/><rect x="174.96" y="40" width="8.1" height="17" fill="#7355dd"/><rect x="184.52" y="40" width="8.1" height="17" fill="#7355dd"/><rect x="194.08" y="40" width="8.1" height="17" fill="#7355dd"/><rect x="203.64" y="40" width="8.1" height="17" fill="#7355dd"/><rect x="213.20" y="40" width="8.1" height="17" fill="#7355dd"/><rect x="222.76" y="40" width="8.1" height="17" fill="#7355dd"/><rect x="232.32" y="40" width="8.1" height="17" fill="#7355dd"/><rect x="241.88" y="40" width="8.1" height="17" fill="#7355dd"/><rect x="251.44" y="40" width="8.1" height="17" fill="#7355dd"/><rect x="261.00" y="40" width="8.1" height="17" fill="#7355dd"/><rect x="270.56" y="40" width="8.1" height="17" fill="#7355dd"/><rect x="280.12" y="40" width="8.1" height="17" fill="#7355dd"/><rect x="289.68" y="40" width="8.1" height="17" fill="#7355dd"/><rect x="299.24" y="40" width="8.1" height="17" fill="#7355dd"/><rect x="308.80" y="40" width="8.1" height="17" fill="#7355dd"/><rect x="318.36" y="40" width="8.1" height="17" fill="#00ADD8"/><rect x="327.92" y="40" width="8.1" height="17" fill="#00ADD8"/><rect x="337.48" y="40" width="8.1" height="17" fill="#00ADD8"/><rect x="347.04" y="40" width="8.1" height="17" fill="#00ADD8"/><rect x="356.60" y="40" width="8.1" height="17" fill="#00ADD8"/><rect x="366.16" y="40" width="8.1" height="17" fill="#00ADD8"/><rect x="375.72" y="40" width="8.1" height="17" fill="#00ADD8"/><rect x="385.28" y="40" width="8.1" height="17" fill="#00ADD8"/><rect x="394.84" y="40" width="8.1" height="17" fill="#00ADD8"/><rect x="404.40" y="40" width="8.1" height="17" fill="#00ADD8"/><rect x="413.96" y="40" width="8.1" height="17" fill="#00ADD8"/><rect x="423.52" y="40" width="8.1" height="17" fill="#00ADD8"/><rect x="433.08" y="40" width="8.1" height="17" fill="#00ADD8"/><rect x="442.64" y="40" width="8.1" height="17" fill="#00ADD8"/><rect x="452.20" y="40" width="8.1" height="17" fill="#00ADD8"/><rect x="461.76" y="40" width="8.1" height="17" fill="#00ADD8"/><rect x="471.32" y="40" width="8.1" height="17" fill="#00ADD8"/><rect x="480.88" y="40" width="8.1" height="17" fill="#00ADD8"/><rect x="490.44" y="40" width="8.1" height="17" fill="#00ADD8"/><rect x="500.00" y="40" width="8.1" height="17" fill="#00ADD8"/><rect x="509.56" y="40" width="8.1" height="17" fill="#00ADD8"/><rect x="519.12" y="40" width="8.1" height="17" fill="#00ADD8"/><rect x="528.68" y="40" width="8.1" height="17" fill="#00ADD8"/><rect x="538.24" y="40" width="8.1" height="17" fill="#00ADD8"/><rect x="547.80" y="40" width="8.1" height="17" fill="#3178c6"/><rect x="557.36" y="40" width="8.1" height="17" fill="#3178c6"/><rect x="566.92" y="40" width="8.1" height="17" fill="#3178c6"/><rect x="576.48" y="40" width="8.1" height="17" fill="#3178c6"/><rect x="586.04" y="40" width="8.1" height="17" fill="#3178c6"/><rect x="595.60" y="40" width="8.1" height="17" fill="#3178c6"/><rect x="605.16" y="40" width="8.1" height="17" fill="#3178c6"/><rect x="614.72" y="40" width="8.1" height="17" fill="#3178c6"/><rect x="624.28" y="40" width="8.1" height="17" fill="#dea584"/><rect x="633.84" y="40" width="8.1" height="17" fill="#dea584"/><rect x="643.40" y="40" width="8.1" height="17" fill="#dea584"/><rect x="652.96" y="40" width="8.1" height="17" fill="#dea584"/><rect x="662.52" y="40" width="8.1" height="17" fill="#dea584"/><rect x="672.08" y="40" width="8.1" height="17" fill="#dea584"/><rect x="681.64" y="40" width="8.1" height="17" fill="#dea584"/><rect x="691.20" y="40" width="8.1" height="17" fill="#f34b7d"/><rect x="700.76" y="40" width="8.1" height="17" fill="#f34b7d"/><rect x="710.32" y="40" width="8.1" height="17" fill="#f34b7d"/><rect x="719.88" y="40" width="8.1" height="17" fill="#f34b7d"/><rect x="729.44" y="40" width="8.1" height="17" fill="#f34b7d"/><rect x="739.00" y="40" width="8.1" height="17" fill="#555555"/><rect x="748.56" y="40" width="8.1" height="17" fill="#555555"/><rect x="758.12" y="40" width="8.1" height="17" fill="#555555"/><rect x="767.68" y="40" width="8.1" height="17" fill="#555555"/><rect x="777.24" y="40" width="8.1" height="17" fill="#4F5D95"/><rect x="786.80" y="40" width="8.1" height="17" fill="#4F5D95"/><rect x="796.36" y="40" width="8.1" height="17" fill="#4F5D95"/><rect x="805.92" y="40" width="8.1" height="17" fill="#F05138"/><rect x="815.48" y="40" width="8.1" height="17" fill="#F05138"/><rect x="825.04" y="40" width="8.1" height="17" fill="#F05138"/><rect x="834.60" y="40" width="8.1" height="17" fill="#A97BFF"/><rect x="844.16" y="40" width="8.1" height="17" fill="#A97BFF"/><rect x="853.72" y="40" width="8.1" height="17" fill="#484f58"/><rect x="863.28" y="40" width="8.1" height="17" fill="#484f58"/><rect x="872.84" y="40" width="8.1" height="17" fill="#484f58"/><rect x="882.40" y="40" width="8.1" height="17" fill="#484f58"/><rect x="891.96" y="40" width="8.1" height="17" fill="#484f58"/><rect x="901.52" y="40" width="8.1" height="17" fill="#484f58"/><rect x="911.08" y="40" width="8.1" height="17" fill="#484f58"/><rect x="920.64" y="40" width="8.1" height="17" fill="#484f58"/><rect x="930.20" y="40" width="8.1" height="17" fill="#484f58"/><rect x="939.76" y="40" width="8.1" height="17" fill="#484f58"/><rect x="949.32" y="40" width="8.1" height="17" fill="#484f58"/><rect x="958.88" y="40" width="8.1" height="17" fill="#484f58"/><rect x="968.44" y="40" width="8.1" height="17" fill="#484f58"/></g>
  <rect x="22.0" y="80" width="8" height="8" fill="#7355dd"/>
    <text x="36.0" y="88" font-family="Consolas,'Lucida Console',Monaco,'DejaVu Sans Mono','Liberation Mono',ui-monospace,monospace" font-size="11.5" fill="#e6edf3">C#<tspan fill="#7d8590" dx="7">31.4%</tspan></text>
  <rect x="214.4" y="80" width="8" height="8" fill="#00ADD8"/>
    <text x="228.4" y="88" font-family="Consolas,'Lucida Console',Monaco,'DejaVu Sans Mono','Liberation Mono',ui-monospace,monospace" font-size="11.5" fill="#e6edf3">Go<tspan fill="#7d8590" dx="7">23.7%</tspan></text>
  <rect x="406.8" y="80" width="8" height="8" fill="#3178c6"/>
    <text x="420.8" y="88" font-family="Consolas,'Lucida Console',Monaco,'DejaVu Sans Mono','Liberation Mono',ui-monospace,monospace" font-size="11.5" fill="#e6edf3">TypeScript<tspan fill="#7d8590" dx="7">7.8%</tspan></text>
  <rect x="599.2" y="80" width="8" height="8" fill="#dea584"/>
    <text x="613.2" y="88" font-family="Consolas,'Lucida Console',Monaco,'DejaVu Sans Mono','Liberation Mono',ui-monospace,monospace" font-size="11.5" fill="#e6edf3">Rust<tspan fill="#7d8590" dx="7">7.3%</tspan></text>
  <rect x="791.6" y="80" width="8" height="8" fill="#f34b7d"/>
    <text x="805.6" y="88" font-family="Consolas,'Lucida Console',Monaco,'DejaVu Sans Mono','Liberation Mono',ui-monospace,monospace" font-size="11.5" fill="#e6edf3">C++<tspan fill="#7d8590" dx="7">5.4%</tspan></text>
  <rect x="22.0" y="104" width="8" height="8" fill="#555555"/>
    <text x="36.0" y="112" font-family="Consolas,'Lucida Console',Monaco,'DejaVu Sans Mono','Liberation Mono',ui-monospace,monospace" font-size="11.5" fill="#e6edf3">C<tspan fill="#7d8590" dx="7">3.9%</tspan></text>
  <rect x="214.4" y="104" width="8" height="8" fill="#4F5D95"/>
    <text x="228.4" y="112" font-family="Consolas,'Lucida Console',Monaco,'DejaVu Sans Mono','Liberation Mono',ui-monospace,monospace" font-size="11.5" fill="#e6edf3">PHP<tspan fill="#7d8590" dx="7">3.3%</tspan></text>
  <rect x="406.8" y="104" width="8" height="8" fill="#F05138"/>
    <text x="420.8" y="112" font-family="Consolas,'Lucida Console',Monaco,'DejaVu Sans Mono','Liberation Mono',ui-monospace,monospace" font-size="11.5" fill="#e6edf3">Swift<tspan fill="#7d8590" dx="7">2.9%</tspan></text>
  <rect x="599.2" y="104" width="8" height="8" fill="#A97BFF"/>
    <text x="613.2" y="112" font-family="Consolas,'Lucida Console',Monaco,'DejaVu Sans Mono','Liberation Mono',ui-monospace,monospace" font-size="11.5" fill="#e6edf3">Kotlin<tspan fill="#7d8590" dx="7">2.5%</tspan></text>
  <rect x="791.6" y="104" width="8" height="8" fill="#484f58"/>
    <text x="805.6" y="112" font-family="Consolas,'Lucida Console',Monaco,'DejaVu Sans Mono','Liberation Mono',ui-monospace,monospace" font-size="11.5" fill="#e6edf3">остальное<tspan fill="#7d8590" dx="7">11.9%</tspan></text>
</svg>
